<svg width="40" height="33" viewBox="0 0 40 33" fill="none" xmlns="http://www.w3.org/2000/svg">
<g clip-path="url(#clip0_125_116)">
<path d="M7.14272 21.0047V22.719C7.14272 22.9095 7.02367 23.0047 6.78557 23.0047H4.64272C4.40462 23.0047 4.28557 22.9095 4.28557 22.719V21.0047C4.28557 20.8142 4.40462 20.719 4.64272 20.719H6.78557C7.02367 20.719 7.14272 20.8142 7.14272 21.0047ZM9.99986 16.4333V18.1476C9.99986 18.338 9.88081 18.4333 9.64272 18.4333H4.64272C4.40462 18.4333 4.28557 18.338 4.28557 18.1476V16.4333C4.28557 16.2428 4.40462 16.1476 4.64272 16.1476H9.64272C9.88081 16.1476 9.99986 16.2428 9.99986 16.4333ZM7.14272 11.8618V13.5761C7.14272 13.7666 7.02367 13.8618 6.78557 13.8618H4.64272C4.40462 13.8618 4.28557 13.7666 4.28557 13.5761V11.8618C4.28557 11.6714 4.40462 11.5761 4.64272 11.5761H6.78557C7.02367 11.5761 7.14272 11.6714 7.14272 11.8618ZM29.9999 21.0047V22.719C29.9999 22.9095 29.8808 23.0047 29.6427 23.0047H10.357C10.1189 23.0047 9.99986 22.9095 9.99986 22.719V21.0047C9.99986 20.8142 10.1189 20.719 10.357 20.719H29.6427C29.8808 20.719 29.9999 20.8142 29.9999 21.0047ZM15.7141 16.4333V18.1476C15.7141 18.338 15.5951 18.4333 15.357 18.4333H13.2141C12.9761 18.4333 12.857 18.338 12.857 18.1476V16.4333C12.857 16.2428 12.9761 16.1476 13.2141 16.1476H15.357C15.5951 16.1476 15.7141 16.2428 15.7141 16.4333ZM12.857 11.8618V13.5761C12.857 13.7666 12.738 13.8618 12.4999 13.8618H10.357C10.1189 13.8618 9.99986 13.7666 9.99986 13.5761V11.8618C9.99986 11.6714 10.1189 11.5761 10.357 11.5761H12.4999C12.738 11.5761 12.857 11.6714 12.857 11.8618ZM21.4284 16.4333V18.1476C21.4284 18.338 21.3094 18.4333 21.0713 18.4333H18.9284C18.6903 18.4333 18.5713 18.338 18.5713 18.1476V16.4333C18.5713 16.2428 18.6903 16.1476 18.9284 16.1476H21.0713C21.3094 16.1476 21.4284 16.2428 21.4284 16.4333ZM18.5713 11.8618V13.5761C18.5713 13.7666 18.4522 13.8618 18.2141 13.8618H16.0713C15.8332 13.8618 15.7141 13.7666 15.7141 13.5761V11.8618C15.7141 11.6714 15.8332 11.5761 16.0713 11.5761H18.2141C18.4522 11.5761 18.5713 11.6714 18.5713 11.8618ZM27.1427 16.4333V18.1476C27.1427 18.338 27.0237 18.4333 26.7856 18.4333H24.6427C24.4046 18.4333 24.2856 18.338 24.2856 18.1476V16.4333C24.2856 16.2428 24.4046 16.1476 24.6427 16.1476H26.7856C27.0237 16.1476 27.1427 16.2428 27.1427 16.4333ZM35.7141 21.0047V22.719C35.7141 22.9095 35.5951 23.0047 35.357 23.0047H33.2141C32.9761 23.0047 32.857 22.9095 32.857 22.719V21.0047C32.857 20.8142 32.9761 20.719 33.2141 20.719H35.357C35.5951 20.719 35.7141 20.8142 35.7141 21.0047ZM24.2856 11.8618V13.5761C24.2856 13.7666 24.1665 13.8618 23.9284 13.8618H21.7856C21.5475 13.8618 21.4284 13.7666 21.4284 13.5761V11.8618C21.4284 11.6714 21.5475 11.5761 21.7856 11.5761H23.9284C24.1665 11.5761 24.2856 11.6714 24.2856 11.8618ZM29.9999 11.8618V13.5761C29.9999 13.7666 29.8808 13.8618 29.6427 13.8618H27.4999C27.2618 13.8618 27.1427 13.7666 27.1427 13.5761V11.8618C27.1427 11.6714 27.2618 11.5761 27.4999 11.5761H29.6427C29.8808 11.5761 29.9999 11.6714 29.9999 11.8618ZM35.7141 11.8618V18.1476C35.7141 18.338 35.5951 18.4333 35.357 18.4333H30.357C30.1189 18.4333 29.9999 18.338 29.9999 18.1476V16.4333C29.9999 16.2428 30.1189 16.1476 30.357 16.1476H32.857V11.8618C32.857 11.6714 32.9761 11.5761 33.2141 11.5761H35.357C35.5951 11.5761 35.7141 11.6714 35.7141 11.8618ZM38.5713 25.2904V9.29041H1.42843V25.2904H38.5713ZM41.4284 9.29041V25.2904C41.4284 25.9214 41.1494 26.4601 40.5914 26.9065C40.0333 27.3529 39.36 27.5761 38.5713 27.5761H1.42843C0.639741 27.5761 -0.0336218 27.3529 -0.591657 26.9065C-1.14969 26.4601 -1.42871 25.9214 -1.42871 25.2904V9.29041C-1.42871 8.65946 -1.14969 8.12077 -0.591657 7.67434C-0.0336218 7.22791 0.639741 7.0047 1.42843 7.0047H38.5713C39.36 7.0047 40.0333 7.22791 40.5914 7.67434C41.1494 8.12077 41.4284 8.65946 41.4284 9.29041Z" fill="black"/>
</g>
<defs>
<clipPath id="clip0_125_116">
<rect width="40" height="32" fill="white" transform="translate(0 0.147583)"/>
</clipPath>
</defs>
</svg>
