<svg width="30" height="31" viewBox="0 0 30 31" fill="none" xmlns="http://www.w3.org/2000/svg">
<path d="M17.5 2.64758H7.5C6.83696 2.64758 6.20107 2.91097 5.73223 3.37982C5.26339 3.84866 5 4.48454 5 5.14758V25.1476C5 25.8106 5.26339 26.4465 5.73223 26.9153C6.20107 27.3842 6.83696 27.6476 7.5 27.6476H22.5C23.163 27.6476 23.7989 27.3842 24.2678 26.9153C24.7366 26.4465 25 25.8106 25 25.1476V10.1476L17.5 2.64758Z" stroke="black" stroke-width="2" stroke-linecap="round" stroke-linejoin="round"/>
<path d="M17.5 2.64758V10.1476H25" stroke="black" stroke-width="2" stroke-linecap="round" stroke-linejoin="round"/>
<path d="M20 16.3976H10" stroke="black" stroke-width="2" stroke-linecap="round" stroke-linejoin="round"/>
<path d="M20 21.3976H10" stroke="black" stroke-width="2" stroke-linecap="round" stroke-linejoin="round"/>
<path d="M12.5 11.3976H11.25H10" stroke="black" stroke-width="2" stroke-linecap="round" stroke-linejoin="round"/>
</svg>
