<svg width="30" height="30" viewBox="0 0 30 30" fill="none" xmlns="http://www.w3.org/2000/svg">
<path d="M0 5.625V7.5H17.8125V21.5625H12.041C11.6235 19.9512 10.1733 18.75 8.4375 18.75C6.70166 18.75 5.25147 19.9512 4.83398 21.5625H3.75V16.875H1.875V23.4375H4.83398C5.25147 25.0488 6.70166 26.25 8.4375 26.25C10.1733 26.25 11.6235 25.0488 12.041 23.4375H19.834C20.2515 25.0488 21.7017 26.25 23.4375 26.25C25.1733 26.25 26.6235 25.0488 27.041 23.4375H30V15.791L29.9414 15.6445L28.0664 10.0195L27.8613 9.375H19.6875V5.625H0ZM0.9375 9.375V11.25H9.375V9.375H0.9375ZM19.6875 11.25H26.5137L28.125 16.0547V21.5625H27.041C26.6235 19.9512 25.1733 18.75 23.4375 18.75C21.7017 18.75 20.2515 19.9512 19.834 21.5625H19.6875V11.25ZM1.875 13.125V15H7.5V13.125H1.875ZM8.4375 20.625C9.48486 20.625 10.3125 21.4526 10.3125 22.5C10.3125 23.5474 9.48486 24.375 8.4375 24.375C7.39014 24.375 6.5625 23.5474 6.5625 22.5C6.5625 21.4526 7.39014 20.625 8.4375 20.625ZM23.4375 20.625C24.4849 20.625 25.3125 21.4526 25.3125 22.5C25.3125 23.5474 24.4849 24.375 23.4375 24.375C22.3901 24.375 21.5625 23.5474 21.5625 22.5C21.5625 21.4526 22.3901 20.625 23.4375 20.625Z" fill="black"/>
</svg>
