<svg width="31" height="29" viewBox="0 0 31 29" fill="none" xmlns="http://www.w3.org/2000/svg">
<path d="M29.7188 26.007H6.20312C5.18784 26.007 4.21414 25.5835 3.49623 24.8297C2.77832 24.0759 2.375 23.0535 2.375 21.9874C2.375 20.9214 2.77832 19.899 3.49623 19.1452C4.21414 18.3914 5.18784 17.9679 6.20312 17.9679H24.7969C26.3923 17.9679 27.9224 17.3024 29.0506 16.1179C30.1787 14.9333 30.8125 13.3267 30.8125 11.6515C30.8125 9.97627 30.1787 8.36967 29.0506 7.18512C27.9224 6.00056 26.3923 5.33508 24.7969 5.33508H18.7812V3.03821C18.7812 2.42904 18.5508 1.84482 18.1405 1.41407C17.7303 0.983324 17.1739 0.741333 16.5938 0.741333H6.75C6.36825 0.743752 5.99375 0.851029 5.66372 1.0525C5.33369 1.25397 5.05962 1.54263 4.86875 1.88977H2.375C1.79484 1.88977 1.23844 2.13176 0.828204 2.56251C0.417968 2.99326 0.1875 3.57748 0.1875 4.18665V8.7804C0.1875 9.38956 0.417968 9.97378 0.828204 10.4045C1.23844 10.8353 1.79484 11.0773 2.375 11.0773H4.86875C5.05962 11.4244 5.33369 11.7131 5.66372 11.9145C5.99375 12.116 6.36825 12.2233 6.75 12.2257H16.5938C17.1739 12.2257 17.7303 11.9837 18.1405 11.553C18.5508 11.1222 18.7812 10.538 18.7812 9.92883V7.63196H24.7969C25.8122 7.63196 26.7859 8.05544 27.5038 8.80925C28.2217 9.56306 28.625 10.5854 28.625 11.6515C28.625 12.7175 28.2217 13.7399 27.5038 14.4937C26.7859 15.2475 25.8122 15.671 24.7969 15.671H6.20312C4.60768 15.671 3.07758 16.3365 1.94944 17.5211C0.821287 18.7056 0.1875 20.3122 0.1875 21.9874C0.1875 23.6626 0.821287 25.2692 1.94944 26.4538C3.07758 27.6384 4.60768 28.3038 6.20312 28.3038H29.7188C30.0088 28.3038 30.287 28.1828 30.4921 27.9675C30.6973 27.7521 30.8125 27.46 30.8125 27.1554C30.8125 26.8508 30.6973 26.5587 30.4921 26.3433C30.287 26.128 30.0088 26.007 29.7188 26.007ZM2.375 4.18665H4.5625V8.7804H2.375V4.18665ZM16.5938 9.92883H6.75V3.03821H16.5938V9.92883Z" fill="black"/>
</svg>
